<?xml version="1.0" encoding="UTF-8" standalone="no"?> <!-- Created with Vectornator for iOS (http://vectornator.io/) --><!DOCTYPE svg PUBLIC "-//W3C//DTD SVG 1.1//EN" "http://www.w3.org/Graphics/SVG/1.1/DTD/svg11.dtd">
<svg style="fill-rule:evenodd;clip-rule:evenodd;stroke-linecap:round;stroke-linejoin:round;" xmlns:vectornator="http://vectornator.io" xmlns:xlink="http://www.w3.org/1999/xlink" xmlns="http://www.w3.org/2000/svg" xml:space="preserve" version="1.1" viewBox="0 0 300 300">
<metadata>
<vectornator:setting key="DisplayWhiteBackground" value="0"/>
<vectornator:setting key="RulersVisible" value="1"/>
<vectornator:setting key="SnapToEdges" value="0"/>
<vectornator:setting key="Units" value="Pixels"/>
<vectornator:setting key="New" value="1"/>
<vectornator:setting key="DynamicGuides" value="0"/>
<vectornator:setting key="SnapToPoints" value="0"/>
<vectornator:setting key="GuidesVisible" value="1"/>
<vectornator:setting key="SnapToGrid" value="0"/>
<vectornator:setting key="SnapToGuides" value="1"/>
<vectornator:setting key="GridSpacing" value="36"/>
</metadata>
<defs/>
<g id="Layer 1" vectornator:layerName="Layer 1">
<path d="M150+25C81.0399+25+25+81.0399+25+150C25+218.96+81.0399+275+150+275C218.96+275+275+218.96+275+150C275+81.0399+218.96+25+150+25ZM150+35.8696C213.083+35.8696+264.13+86.9167+264.13+150C264.13+150.388+264.102+150.77+264.099+151.157C260.622+150.836+256.606+150.531+251.499+150.35C244.278+150.094+235.175+150.168+224.856+150.679C225.238+148.014+225.507+145.312+225.514+142.538C226.04+132.36+222.622+122.839+217.064+114.43C218.407+109.79+219.982+103.887+220.376+97.1913C220.825+89.5594+220.166+81.0966+214.039+75.3779L212.468+73.913L210.324+73.913C195.742+73.913+185.761+80.0174+179.658+84.8569C170.845+81.4458+160.936+79.3478+150+79.3478C139.002+79.3478+128.997+81.4751+119.822+84.8781C113.722+80.0364+103.733+73.913+89.1347+73.913L87.0011+73.913L85.4301+75.3673C79.4617+80.9094+78.9118+89.14+79.2841+96.7349C79.6125+103.432+81.0964+109.523+82.4155+114.387C76.7635+122.961+73.3717+132.728+73.3717+142.389C73.3717+145.17+73.6303+147.881+74.0086+150.552C64.1947+150.097+55.4462+150.009+48.5012+150.255C43.3941+150.435+39.3774+150.738+35.9014+151.061C35.8982+150.706+35.8696+150.356+35.8696+150C35.8696+86.9167+86.9167+35.8696+150+35.8696ZM92.3722+85.4938C103.337+86.5328+111.587+91.4292+115.406+94.8242L117.954+97.0746L121.096+95.7902C129.691+92.2511+139.277+90.2174+150+90.2174C160.723+90.2174+170.312+92.2613+178.257+95.7371L181.441+97.1383L184.042+94.8242C187.862+91.428+196.126+86.5302+207.097+85.4938C208.556+87.9122+209.823+91.3515+209.517+96.5544C209.151+102.781+207.485+109.563+206.227+113.591L205.409+116.213L207.033+118.432C212.411+125.765+215.153+133.701+214.687+142.092L214.676+142.241L214.676+142.389C214.676+155.951+209.792+166.806+199.391+174.849C188.989+182.892+172.569+188.043+149.459+188.043C126.348+188.043+109.918+182.892+99.516+174.849C89.1144+166.806+84.2413+155.951+84.2413+142.389C84.2413+134.429+87.1158+125.672+92.4253+118.432L94.0175+116.266L93.2532+113.687C91.9938+109.405+90.4501+102.468+90.1431+96.2041C89.8877+90.9942+91.1208+87.7012+92.3722+85.4938ZM62.4172+155.552C66.2579+155.601+70.6601+155.808+75.0701+156.029C75.4914+157.724+75.9719+159.391+76.5561+161.018C58.5814+161.397+45.1344+163.205+36.8461+164.755C36.4957+162.035+36.2166+159.294+36.0606+156.517C42.1859+155.936+50.8206+155.403+62.4172+155.552ZM237.583+155.636C249.171+155.489+257.803+156.023+263.929+156.602C263.773+159.339+263.499+162.042+263.154+164.723C254.569+163.148+240.759+161.341+222.319+161.05C222.891+159.455+223.368+157.816+223.784+156.157C228.648+155.896+233.394+155.69+237.583+155.636ZM78.8702+166.41C82.1133+172.909+86.7474+178.712+92.8711+183.447C101.244+189.921+112.128+194.445+125.416+196.864C123.678+198.651+122.097+200.612+120.693+202.681L120.363+202.395C120.393+202.36+117.662+203.728+113.581+204.093C109.499+204.459+104.465+204.348+100.004+204.348C93.3466+204.348+90.4142+201.202+85.7273+195.474C83.132+191.976+79.9679+189.143+76.8958+186.993C73.7501+184.791+71.0666+183.236+67.7458+182.683L67.3+182.609L66.8436+182.609C64.3074+182.609+61.8532+182.792+59.5618+185.411C58.4162+186.72+57.6265+189.144+58.1394+191.196C58.6524+193.248+59.9503+194.509+61.1116+195.283C68.5394+200.235+69.8522+210.035+74.5075+218.752C78.8549+227.415+88.2373+231.522+97.8282+231.522L111.957+231.522L111.957+257.624C73.7381+244.133+44.9167+210.895+37.6741+170.126C45.9942+168.559+59.9268+166.674+78.8702+166.41ZM220.015+166.453C239.378+166.619+253.701+168.5+262.337+170.094C255.104+210.878+226.272+244.13+188.043+257.624L188.043+229.346C188.043+220.734+185.215+211.238+180.295+203.318C178.801+200.914+177.043+198.64+175.083+196.599C187.666+194.113+198.002+189.668+206.046+183.447C212.157+178.722+216.78+172.937+220.015+166.453ZM142.931+199.454L158.152+199.454C162.57+199.454+167.285+202.975+171.06+209.05C174.835+215.125+177.174+223.284+177.174+229.346L177.174+260.861C168.464+262.985+159.368+264.13+150+264.13C140.632+264.13+131.536+262.985+122.826+260.861L122.826+229.346C122.826+223.418+125.369+215.279+129.397+209.178C133.425+203.076+138.513+199.454+142.931+199.454ZM81.025+205.876C85.7303+210.757+91.4268+215.217+100.004+215.217C104.239+215.217+109.524+215.37+114.547+214.92C114.564+214.919+114.582+214.911+114.6+214.91C113.938+216.812+113.444+218.726+113.029+220.652L97.8282+220.652C91.1253+220.652+86.3901+218.231+84.2094+213.869L84.167+213.795L84.1351+213.731C83.2416+212.072+82.0687+208.753+81.025+205.876Z" opacity="1" fill="#000000"/>
</g>
</svg>
