<?xml version="1.0" encoding="UTF-8" standalone="no"?> <!-- Created with Vectornator for iOS (http://vectornator.io/) --><!DOCTYPE svg PUBLIC "-//W3C//DTD SVG 1.1//EN" "http://www.w3.org/Graphics/SVG/1.1/DTD/svg11.dtd">
<svg style="fill-rule:evenodd;clip-rule:evenodd;stroke-linecap:round;stroke-linejoin:round;" xmlns:vectornator="http://vectornator.io" xmlns:xlink="http://www.w3.org/1999/xlink" xmlns="http://www.w3.org/2000/svg" xml:space="preserve" version="1.1" viewBox="0 0 300 300">
<metadata>
<vectornator:setting key="DisplayWhiteBackground" value="0"/>
<vectornator:setting key="RulersVisible" value="1"/>
<vectornator:setting key="GridSpacing" value="36"/>
<vectornator:setting key="Units" value="Pixels"/>
<vectornator:setting key="New" value="1"/>
<vectornator:setting key="DynamicGuides" value="0"/>
<vectornator:setting key="SnapToPoints" value="0"/>
<vectornator:setting key="GuidesVisible" value="1"/>
<vectornator:setting key="SnapToGrid" value="0"/>
<vectornator:setting key="SnapToGuides" value="1"/>
<vectornator:setting key="SnapToEdges" value="0"/>
</metadata>
<defs/>
<g id="Layer 1" vectornator:layerName="Layer 1">
<path d="M54.7619+17.7711C38.3957+17.7711+25+31.9415+25+49.2542L25+250.746C25+268.058+38.3957+282.229+54.7619+282.229L245.238+282.229C261.604+282.229+275+268.058+275+250.746L275+49.2542C275+31.9415+261.604+17.7711+245.238+17.7711L54.7619+17.7711ZM54.7619+30.3643L245.238+30.3643C255.17+30.3643+263.095+38.7484+263.095+49.2542L263.095+250.746C263.095+261.252+255.17+269.636+245.238+269.636L54.7619+269.636C44.8305+269.636+36.9048+261.252+36.9048+250.746L36.9048+49.2542C36.9048+38.7484+44.8305+30.3643+54.7619+30.3643ZM84.5238+61.9212C78.0046+61.9212+72.1382+63.9825+67.7944+67.8489C63.4505+71.7153+60.784+77.4914+60.784+83.6765C60.784+95.4334+70.4243+104.599+82.6869+105.506C82.6947+105.51+82.7024+105.514+82.7102+105.518C83.2945+105.729+83.9065+105.841+84.5238+105.85C98.0536+105.85+108.264+95.8245+108.264+83.6765C108.262+83.5657+108.259+83.455+108.252+83.3444C107.646+71.3794+97.5622+61.9212+84.5238+61.9212ZM84.5238+74.3668C92.8109+74.3668+96.0832+78.2818+96.4402+83.8364C96.3679+89.2278+93.2148+93.4043+84.5238+93.4043C76.2773+93.4043+72.5493+88.9369+72.5493+83.6765C72.5493+81.0463+73.4566+79.0642+75.3627+77.3676C77.2689+75.6709+80.3287+74.3668+84.5238+74.3668ZM66.6667+112.22C63.3794+112.221+60.7146+115.04+60.7143+118.517L60.7143+238.153C60.7146+241.63+63.3794+244.449+66.6667+244.449L102.381+244.449C105.668+244.449+108.333+241.63+108.333+238.153L108.333+201.221L108.333+118.517C108.333+115.04+105.668+112.221+102.381+112.22L66.6667+112.22ZM120.238+112.22C116.951+112.221+114.286+115.04+114.286+118.517L114.286+238.153C114.286+241.63+116.951+244.449+120.238+244.449L155.952+244.449C159.24+244.449+161.904+241.63+161.905+238.153L161.905+175.186C161.905+169.962+163.252+164.766+165.625+161.363C167.998+157.961+170.991+155.919+176.681+156.026C182.549+156.133+185.655+158.259+188.005+161.597C190.354+164.935+191.667+169.939+191.667+175.186L191.667+238.153C191.667+241.63+194.332+244.449+197.619+244.449L233.333+244.449C236.621+244.449+239.285+241.63+239.286+238.153L239.286+170.538C239.286+151.89+234.064+137.119+225.114+127.126C216.164+117.132+203.715+112.22+190.551+112.22C178.039+112.22+168.517+116.659+161.905+121.186L161.905+118.517C161.904+115.04+159.24+112.221+155.952+112.22L120.238+112.22ZM72.619+124.814L96.4286+124.814L96.4286+201.221L96.4286+231.856L72.619+231.856L72.619+124.814ZM126.19+124.814L150+124.814L150+134.64C150.001+137.347+151.638+139.751+154.065+140.61C156.492+141.469+159.167+140.59+160.707+138.428C160.707+138.428+170.055+124.814+190.551+124.814C200.987+124.814+209.937+128.482+216.476+135.783C223.015+143.085+227.381+154.334+227.381+170.538L227.381+231.856L203.571+231.856L203.571+175.186C203.571+167.84+201.908+160.245+197.561+154.071C193.214+147.896+185.904+143.597+176.89+143.433C167.831+143.263+160.402+147.651+156.045+153.898C151.689+160.146+150+167.817+150+175.186L150+231.856L126.19+231.856L126.19+124.814Z" opacity="1" fill="#000000"/>
</g>
</svg>
